<svg xmlns="http://www.w3.org/2000/svg" viewBox="0 0 520 744" height="744" xmlns:xlink="http://www.w3.org/1999/xlink" width="520">
    <defs/>
    <g transform="translate(-152.47,-211.67)">
        <path fill="#3498db" transform="translate(170,227)" id="shape1" d="M0,28.5C0,12.8,12.8,0,28.5,0C44.2,0,57,12.8,57,28.5C57,44.2,44.2,57,28.5,57C12.8,57,0,44.2,0,28.5z" stroke="#3498db"/>
        <path fill="#3498db" transform="matrix(0.87,0.5,-0.5,0.87,291.6,216.6)" id="shape2" d="M0,28.5C0,12.8,12.8,0,28.5,0C44.2,0,57,12.8,57,28.5C57,44.2,44.2,57,28.5,57C12.8,57,0,44.2,0,28.5z" stroke="#3498db"/>
        <path fill="#3498db" transform="translate(378,227)" id="shape3" d="M0,28.5C0,12.8,12.8,0,28.5,0C44.2,0,57,12.8,57,28.5C57,44.2,44.2,57,28.5,57C12.8,57,0,44.2,0,28.5z" stroke="#3498db"/>
        <path fill="#3498db" transform="translate(488.04,227)" id="shape4" d="M0,28.5C0,12.8,12.8,0,28.5,0C44.2,0,57,12.8,57,28.5C57,44.2,44.2,57,28.5,57C12.8,57,0,44.2,0,28.5z" stroke="#3498db"/>
        <path fill="#3498db" transform="translate(614.5,227)" id="shape5" d="M0,28.5C0,12.8,12.8,0,28.5,0C44.2,0,57,12.8,57,28.5C57,44.2,44.2,57,28.5,57C12.8,57,0,44.2,0,28.5z" stroke="#3498db"/>
        <path fill="#ff0000" transform="translate(169,349.5)" id="shape6" d="M0,28.5C0,12.8,12.8,0,28.5,0C44.2,0,57,12.8,57,28.5C57,44.2,44.2,57,28.5,57C12.8,57,0,44.2,0,28.5z"/>
        <path fill="#ff0000" transform="translate(273.5,349.5)" id="shape7" d="M0,28.5C0,12.8,12.8,0,28.5,0C44.2,0,57,12.8,57,28.5C57,44.2,44.2,57,28.5,57C12.8,57,0,44.2,0,28.5z"/>
        <path fill="#ff0000" transform="translate(378,349.5)" id="shape8" d="M0,28.5C0,12.8,12.8,0,28.5,0C44.2,0,57,12.8,57,28.5C57,44.2,44.2,57,28.5,57C12.8,57,0,44.2,0,28.5z"/>
        <path fill="#ff0000" transform="translate(488.04,349.5)" id="shape9" d="M0,28.5C0,12.8,12.8,0,28.5,0C44.2,0,57,12.8,57,28.5C57,44.2,44.2,57,28.5,57C12.8,57,0,44.2,0,28.5z"/>
        <path fill="#ff0000" transform="translate(614.5,349.5)" id="shape10" d="M0,28.5C0,12.8,12.8,0,28.5,0C44.2,0,57,12.8,57,28.5C57,44.2,44.2,57,28.5,57C12.8,57,0,44.2,0,28.5z"/>
        <path fill="none" stroke-width="1.33333" transform="matrix(0.75,0.66,-0.66,0.75,298.6,191.5)" id="shape11" stroke-dasharray="11,5" d="M0,131.7C0,59,20.6,0,45.9,0C71.3,0,91.8,59,91.8,131.7C91.8,204.4,71.3,263.3,45.9,263.3C20.6,263.3,0,204.4,0,131.7z" stroke="#002060"/>
        <path fill="none" stroke-width="1.33333" transform="matrix(0.75,0.66,-0.66,0.75,402.6,187.4)" id="shape12" stroke-dasharray="11,5" d="M0,131.7C0,59,20.6,0,45.9,0C71.3,0,91.8,59,91.8,131.7C91.8,204.4,71.3,263.3,45.9,263.3C20.6,263.3,0,204.4,0,131.7z" stroke="#002060"/>
        <path fill="#3498db" transform="translate(170,475.07)" id="shape13" d="M0,28.5C0,12.8,12.8,0,28.5,0C44.2,0,57,12.8,57,28.5C57,44.2,44.2,57,28.5,57C12.8,57,0,44.2,0,28.5z" stroke="#3498db"/>
        <path fill="#3498db" transform="matrix(0.87,0.5,-0.5,0.87,291.6,464.6)" id="shape14" d="M0,28.5C0,12.8,12.8,0,28.5,0C44.2,0,57,12.8,57,28.5C57,44.2,44.2,57,28.5,57C12.8,57,0,44.2,0,28.5z" stroke="#3498db"/>
        <path fill="#3498db" transform="translate(378,475.07)" id="shape15" d="M0,28.5C0,12.8,12.8,0,28.5,0C44.2,0,57,12.8,57,28.5C57,44.2,44.2,57,28.5,57C12.8,57,0,44.2,0,28.5z" stroke="#3498db"/>
        <path fill="#3498db" transform="translate(488.04,475.07)" id="shape16" d="M0,28.5C0,12.8,12.8,0,28.5,0C44.2,0,57,12.8,57,28.5C57,44.2,44.2,57,28.5,57C12.8,57,0,44.2,0,28.5z" stroke="#3498db"/>
        <path fill="#3498db" transform="translate(614.5,475.07)" id="shape17" d="M0,28.5C0,12.8,12.8,0,28.5,0C44.2,0,57,12.8,57,28.5C57,44.2,44.2,57,28.5,57C12.8,57,0,44.2,0,28.5z" stroke="#3498db"/>
        <path fill="#ff0000" transform="translate(169,597.57)" id="shape18" d="M0,28.5C0,12.8,12.8,0,28.5,0C44.2,0,57,12.8,57,28.5C57,44.2,44.2,57,28.5,57C12.8,57,0,44.2,0,28.5z"/>
        <path fill="#ff0000" transform="translate(273.5,597.57)" id="shape19" d="M0,28.5C0,12.8,12.8,0,28.5,0C44.2,0,57,12.8,57,28.5C57,44.2,44.2,57,28.5,57C12.8,57,0,44.2,0,28.5z"/>
        <path fill="#ff0000" transform="translate(378,597.57)" id="shape20" d="M0,28.5C0,12.8,12.8,0,28.5,0C44.2,0,57,12.8,57,28.5C57,44.2,44.2,57,28.5,57C12.8,57,0,44.2,0,28.5z"/>
        <path fill="#ff0000" transform="translate(488.04,597.57)" id="shape21" d="M0,28.5C0,12.8,12.8,0,28.5,0C44.2,0,57,12.8,57,28.5C57,44.2,44.2,57,28.5,57C12.8,57,0,44.2,0,28.5z"/>
        <path fill="#ff0000" transform="translate(614.5,597.57)" id="shape22" d="M0,28.5C0,12.8,12.8,0,28.5,0C44.2,0,57,12.8,57,28.5C57,44.2,44.2,57,28.5,57C12.8,57,0,44.2,0,28.5z"/>
        <path fill="none" stroke-width="1.33333" transform="translate(256.09,433.26)" id="shape23" stroke-dasharray="11,5" d="M0,131.7C0,59,20.6,0,45.9,0C71.3,0,91.8,59,91.8,131.7C91.8,204.4,71.3,263.3,45.9,263.3C20.6,263.3,0,204.4,0,131.7z" stroke="#002060"/>
        <path fill="none" stroke-width="1.33333" transform="translate(153.8,433.26)" id="shape24" stroke-dasharray="11,5" d="M0,131.7C0,59,20.6,0,45.9,0C71.3,0,91.8,59,91.8,131.7C91.8,204.4,71.3,263.3,45.9,263.3C20.6,263.3,0,204.4,0,131.7z" stroke="#002060"/>
        <path fill="#3498db" transform="translate(170,758.07)" id="shape25" d="M0,28.5C0,12.8,12.8,0,28.5,0C44.2,0,57,12.8,57,28.5C57,44.2,44.2,57,28.5,57C12.8,57,0,44.2,0,28.5z" stroke="#3498db"/>
        <path fill="#3498db" transform="matrix(0.87,0.5,-0.5,0.87,291.6,747.6)" id="shape26" d="M0,28.5C0,12.8,12.8,0,28.5,0C44.2,0,57,12.8,57,28.5C57,44.2,44.2,57,28.5,57C12.8,57,0,44.2,0,28.5z" stroke="#3498db"/>
        <path fill="#3498db" transform="translate(378,758.07)" id="shape27" d="M0,28.5C0,12.8,12.8,0,28.5,0C44.2,0,57,12.8,57,28.5C57,44.2,44.2,57,28.5,57C12.8,57,0,44.2,0,28.5z" stroke="#3498db"/>
        <path fill="#3498db" transform="translate(488.04,758.07)" id="shape28" d="M0,28.5C0,12.8,12.8,0,28.5,0C44.2,0,57,12.8,57,28.5C57,44.2,44.2,57,28.5,57C12.8,57,0,44.2,0,28.5z" stroke="#3498db"/>
        <path fill="#3498db" transform="translate(614.5,758.07)" id="shape29" d="M0,28.5C0,12.8,12.8,0,28.5,0C44.2,0,57,12.8,57,28.5C57,44.2,44.2,57,28.5,57C12.8,57,0,44.2,0,28.5z" stroke="#3498db"/>
        <path fill="#ff0000" transform="translate(169,880.57)" id="shape30" d="M0,28.5C0,12.8,12.8,0,28.5,0C44.2,0,57,12.8,57,28.5C57,44.2,44.2,57,28.5,57C12.8,57,0,44.2,0,28.5z"/>
        <path fill="#ff0000" transform="translate(273.5,880.57)" id="shape31" d="M0,28.5C0,12.8,12.8,0,28.5,0C44.2,0,57,12.8,57,28.5C57,44.2,44.2,57,28.5,57C12.8,57,0,44.2,0,28.5z"/>
        <path fill="#ff0000" transform="translate(378,880.57)" id="shape32" d="M0,28.5C0,12.8,12.8,0,28.5,0C44.2,0,57,12.8,57,28.5C57,44.2,44.2,57,28.5,57C12.8,57,0,44.2,0,28.5z"/>
        <path fill="#ff0000" transform="translate(488.04,880.57)" id="shape33" d="M0,28.5C0,12.8,12.8,0,28.5,0C44.2,0,57,12.8,57,28.5C57,44.2,44.2,57,28.5,57C12.8,57,0,44.2,0,28.5z"/>
        <path fill="#ff0000" transform="translate(614.5,880.57)" id="shape34" d="M0,28.5C0,12.8,12.8,0,28.5,0C44.2,0,57,12.8,57,28.5C57,44.2,44.2,57,28.5,57C12.8,57,0,44.2,0,28.5z"/>
        <path fill="none" stroke-width="1.33333" transform="matrix(0.79,-0.62,0.62,0.79,131.8,771.5)" id="shape35" stroke-dasharray="11,5" d="M0,131.7C0,59,20.6,0,45.9,0C71.3,0,91.8,59,91.8,131.7C91.8,204.4,71.3,263.3,45.9,263.3C20.6,263.3,0,204.4,0,131.7z" stroke="#002060"/>
        <path fill="none" stroke-width="1.33333" transform="matrix(0.77,-0.64,0.64,0.77,237.8,777.8)" id="shape36" stroke-dasharray="11,5" d="M0,131.7C0,59,20.6,0,45.9,0C71.3,0,91.8,59,91.8,131.7C91.8,204.4,71.3,263.3,45.9,263.3C20.6,263.3,0,204.4,0,131.7z" stroke="#002060"/>
    </g>
</svg>
